<svg xmlns="http://www.w3.org/2000/svg" xmlns:xlink="http://www.w3.org/1999/xlink" width="30" height="30" viewBox="0 0 30 30"><g id="surface21401973"><path style="stroke:none;fill-rule:nonzero;fill:#fff;fill-opacity:1" d="M 24.46875 4.363281 C 24.152344 4.371094 23.851562 4.503906 23.632812 4.730469 L 15.03125 13.332031 L 6.429688 4.730469 C 6.203125 4.5 5.890625 4.367188 5.566406 4.367188 C 5.078125 4.367188 4.640625 4.664062 4.457031 5.117188 C 4.273438 5.570312 4.382812 6.089844 4.730469 6.429688 L 13.332031 15.03125 L 4.730469 23.632812 C 4.417969 23.933594 4.292969 24.378906 4.402344 24.800781 C 4.511719 25.222656 4.839844 25.550781 5.261719 25.660156 C 5.679688 25.769531 6.128906 25.640625 6.429688 25.328125 L 15.03125 16.726562 L 23.632812 25.328125 C 23.933594 25.640625 24.378906 25.769531 24.800781 25.660156 C 25.222656 25.550781 25.550781 25.222656 25.660156 24.800781 C 25.769531 24.378906 25.640625 23.933594 25.328125 23.632812 L 16.726562 15.03125 L 25.328125 6.429688 C 25.6875 6.085938 25.796875 5.558594 25.605469 5.101562 C 25.417969 4.644531 24.964844 4.351562 24.46875 4.363281 Z M 24.46875 4.363281"/></g></svg>